<svg width="985" height="865" viewBox="0 0 985 985" fill="none" xmlns="http://www.w3.org/2000/svg">
<path transform="matrix(1,0,0,1,0,0)" d="M 725.8 241 C 724.4 238.6 724.4 238.6 724.4 238.6 L 724.4 238.6 L 724.4 238.6 L 724.2 238.7 C 724.2 238.7 724.1 238.7 724 238.9 C 723.9 239 723.5 239.2 723.2 239.5 C 722.4 240 721.1 240.8 719.6 241.7 C 716.3 243.6 711.7 246.4 706 249.7 C 694.3 256.2 678.1 265 659.1 273.7 C 621.2 291.1 573.1 308.2 532.1 307.2 C 511.4 306.8 494 305.1 477.8 303.4 C 477 303.2 476 303.2 475.2 303.1 C 459.9 301.4 445.4 299.9 429.6 299.5 C 396 298.8 357.1 303.5 292.9 324.1 C 228.2 344.9 186.7 387.1 156.8 427.3 C 145.3 443 135.4 458.4 126.6 472 C 124.1 475.9 121.7 479.7 119.4 483.2 C 108.6 499.6 99.7 512.2 90.9 518.6 C 72.3 532.1 34 560.9 0.1 586.3 C -16.7 599 -32.4 610.9 -43.9 619.5 C -49.5 623.9 -54.3 627.4 -57.6 629.9 C -59.2 631.1 -60.4 632 -61.3 632.8 L -62.3 633.4 L -62.5 633.7 L -62.6 633.7 L -62.6 633.7 L -62.6 633.7 C -62.6 633.7 -62.6 633.7 -61.4 635.3 L -62.6 633.7 L -63.9 634.7 L -63.7 636.3 L -63.4 637.9 L -62.8 641.1 L -59.9 640.1 L 34.7 609.7 C 31.1 613.7 26.3 619 20.1 626.2 C 5.5 642.9 -16.5 669.8 -46.1 709.9 C -46.3 709.8 -46.5 709.7 -46.7 709.4 L -52.8 703.8 L -51.3 711.8 L -51.3 712.5 L -51.1 713 L -50.7 713.4 L -50.1 713.1 V 713.1 C -50.7 713.4 -50.7 713.4 -50.7 713.4 V 713.4 L -50.7 713.4 L -50.7 713.5 C -50.7 713.5 -50.6 713.6 -50.6 713.6 C -50.5 713.8 -50.3 714 -50.1 714.4 C -49.8 714.8 -49.2 715.7 -48.5 716.7 C -47.1 718.8 -44.8 721.7 -42.2 725.2 C -36.7 732.1 -29.1 741.3 -19.7 749.9 C -10.5 758.6 0.5 766.9 12.2 772.3 C 24 777.5 36.8 779.9 49.6 776.1 L 49.6 776.1 H 49.6 C 54.3 774.8 59.5 772.5 65.1 769.8 C 84.5 780.6 109.7 791 137.6 793.9 L 144.4 794.7 L 140 789.5 H 140 V 789.5 L 140 789.5 L 139.8 789.3 C 139.8 789.3 139.8 789.2 139.7 789.2 C 139.6 789 139.4 788.7 139.1 788.4 C 138.5 787.8 137.8 786.8 136.8 785.7 C 134.8 783.2 132 779.7 128.5 775.3 C 122.3 767.2 114.3 756.3 106.9 744.7 C 109.3 743.1 111.9 741.5 114.4 739.9 L 153.2 754 L 157.2 755.6 L 156.8 751.2 L 152.9 717.4 L 188.5 730.6 L 192.7 732.1 L 192 727.6 L 187.5 695.1 C 191.8 693 196.1 690.8 200.5 688.8 L 201.7 688.1 L 202.1 687 L 242.6 532.3 L 403.8 421.8 L 393.6 447.4 C 393.6 447.4 393.6 447.4 393.6 447.4 C 376.6 489.4 352.3 515.2 332.2 530.7 C 322.2 538.3 313.3 543.3 306.8 546.5 C 303.6 548 301 549.1 299.3 549.8 C 298.4 550.2 297.7 550.4 297.2 550.6 C 297 550.7 296.8 550.8 296.7 550.8 L 296.6 550.8 C 296.6 550.8 296.6 550.8 296.6 550.8 L 296.6 550.8 L 296.6 550.8 V 550.8 V 550.8 L 296.5 550.9 L 296.4 550.9 L 269.5 561 L 268.8 561.3 L 268.3 561.9 C 267.3 563.2 266.3 564.4 265.3 565.6 C 257 575.4 250.5 583.1 245.4 596.3 C 239.7 611.2 236 632.9 232.6 672.9 L 232.2 676.7 L 235.9 675.8 C 251.7 671.7 266.6 670.9 280 674.5 C 315.2 684 339 710.1 351.6 737 C 357.9 750.3 361.4 763.9 362.1 775.5 C 362.8 787.1 360.7 796.4 356.5 801.7 C 351.9 807.3 340.9 817.3 326.4 829.3 H 298 H 295.4 L 295.3 831.9 L 295 854.5 C 295 854.5 295 854.5 295 854.5 C 294.5 854.9 294.1 855.2 293.7 855.4 H 264.8 H 262.1 L 262.1 858.2 L 261.8 880.2 C 260.5 881.1 259.3 882 258 883 C 257.3 883.7 256.4 884.2 255.7 884.8 C 242.5 884.8 227.6 879.1 215.5 873.2 C 209.3 870.3 204.2 867.1 200.3 864.9 C 198.6 863.8 197.1 862.9 196.1 862.2 C 195.6 862 195.2 861.6 195 861.5 C 194.9 861.4 194.7 861.4 194.6 861.2 L 194.6 861.2 L 194.6 861.2 L 194.6 861.2 L 194.6 861.2 L 190.4 858.3 V 863.5 C 190.4 875.3 195.1 889.9 199.8 901.3 C 202.2 907.1 204.5 912.1 206.3 915.7 C 207.1 917.6 207.8 919 208.4 920 C 208.4 920 208.4 920.1 208.4 920.1 L 207.2 920.8 L 209.7 922.5 L 210.4 923.9 L 211.2 923.6 C 211.3 923.6 211.3 923.6 211.4 923.7 C 212 924 212.8 924.5 213.9 925.2 C 216.1 926.6 219.3 928.6 223.2 930.7 C 231.1 935.2 241.9 940.9 254.4 946.2 C 266.9 951.4 280.9 956 295 958.1 C 308.9 960.3 323 959.9 335.4 955.1 C 346.2 950.8 361.1 942.2 378.6 931.1 C 390.7 923.6 404.2 914.7 418.5 905.4 C 425.2 900.9 432 896.6 439 892.1 C 483.1 863.3 533.5 831.7 580.3 811.4 L 864.4 736.1 L 865.7 735.7 L 866.3 734.4 L 903.8 636.6 L 905.7 631.7 L 900.5 633.1 L 687.2 689.6 V 607.5 L 939.4 540.6 L 940.8 540.2 L 941.3 539 L 978.8 441.3 L 980.7 436.3 L 975.6 437.6 L 687.2 514.1 V 432 L 1014.5 345.3 L 1015.8 344.9 L 1016.3 343.6 L 1051.2 252.6 L 1051.6 251.7 L 1051.3 251 L 1049.8 245.2 L 1049.1 242.7 L 1046.5 243.3 L 707.9 333.1 C 723.4 308.3 728.8 285.9 730.2 269.4 C 730.9 260.4 730.6 253.2 729.9 248.3 C 729.5 245.6 729.2 243.7 728.9 242.3 C 728.8 241.7 728.7 241.1 728.6 240.8 C 728.6 240.6 728.5 240.4 728.5 240.4 C 728.5 240.3 728.5 240.3 728.5 240.3 L 728.5 240.1 L 728.5 240.1 L 728.5 240.1 C 728.5 240.1 728.5 240.1 725.8 241 Z M 725.8 241 L 724.4 238.6 L 727.4 236.7 L 728.5 240.1 L 725.8 241 Z M 723.2 241.7 C 723.2 241.7 723.2 241.7 723.2 241.7 V 241.7 Z M 499.7 530.9 L 563.1 514.1 L 543 566.6 L 479.4 583.5 L 499.7 530.9 Z M 539.1 591.1 L 518.9 643.6 L 455.5 660.5 L 475.7 607.8 L 539.1 591.1 Z M 630.2 571.4 L 610.1 624 L 546.6 640.8 L 566.8 588.2 L 630.2 571.4 Z" fill="black"/>
</svg>
